<svg width="63" height="63" viewBox="0 0 63 63" fill="none" xmlns="http://www.w3.org/2000/svg">
<g clip-path="url(#clip0_797_999)">
<path d="M62.9999 33.6001V29.4001C62.9999 28.8202 62.5297 28.3501 61.9499 28.3501H48.8249V7.35011C48.8249 6.77025 48.3548 6.30011 47.7749 6.30011H36.6334C38.0509 4.9212 38.8504 3.02766 38.8499 1.05012C38.8499 0.470259 38.3798 0.00012207 37.7999 0.00012207C35.216 0.00419081 32.824 1.36486 31.4999 3.58376C30.1759 1.36486 27.7839 0.00419081 25.1999 0.00012207C24.6201 0.00012207 24.1499 0.470259 24.1499 1.05012C24.1494 3.02766 24.949 4.9212 26.3665 6.30011H15.225C14.6451 6.30011 14.175 6.77025 14.175 7.35011V28.3501H1.05C0.470136 28.3501 0 28.8202 0 29.4001V33.6001C0 34.1799 0.470136 34.6501 1.05 34.6501H35.5298L29.2298 36.75H13.65C13.3715 36.75 13.1045 36.8608 12.9076 37.0577L8.39998 41.5653L7.04233 40.2077C6.63231 39.7978 5.96766 39.7978 5.55764 40.2077L0.307649 45.4577C-0.102243 45.8677 -0.102243 46.5323 0.307649 46.9424L16.0576 62.6923C16.4676 63.1022 17.1323 63.1022 17.5423 62.6923L22.7923 57.4423C23.2022 57.0323 23.2022 56.3677 22.7923 55.9577L22.6191 55.7844L28.6859 51.45H49.3499C49.6127 51.45 49.866 51.3514 50.0597 51.1739L61.4774 40.7085C63.1991 39.1326 63.499 36.5301 62.1809 34.6038C62.6551 34.5021 62.9954 34.085 62.9999 33.6001ZM36.6155 2.23452C36.1592 4.18581 34.6356 5.70935 32.6843 6.16571C33.1407 4.21442 34.6642 2.69087 36.6155 2.23452ZM30.3155 6.16571C28.3642 5.70935 26.8407 4.18581 26.3843 2.23452C28.3356 2.69087 29.8592 4.21442 30.3155 6.16571ZM16.275 8.4001H46.7249V28.3501C21.937 28.3501 34.4298 28.3501 16.275 28.3501V8.4001ZM2.1 32.5501V30.4501H60.8999V32.5501H2.1ZM44.8778 35.2533C44.7657 35.0416 44.6358 34.8397 44.4895 34.6501H53.9384L46.8509 40.95H43.1245C45.1818 39.8611 45.9668 37.3105 44.8778 35.2533ZM16.8 60.4653L2.53469 46.2L6.29999 42.4347L20.5653 56.7L16.8 60.4653ZM60.0599 39.1649L48.9414 49.3499H28.3499C28.1311 49.3499 27.918 49.4181 27.7399 49.5452L21.1134 54.2786L9.88468 43.0499L14.0847 38.8499H29.3999C29.5127 38.85 29.6248 38.8319 29.7317 38.7964L40.4732 35.2159C41.5837 34.8432 42.7861 35.4415 43.1587 36.552C43.5313 37.6625 42.9331 38.8649 41.8226 39.2375C41.7827 39.2509 41.7424 39.2631 41.7017 39.2741L35.5592 40.9499H32.5499V43.0499H47.2499C47.5069 43.05 47.755 42.9558 47.9471 42.7853L56.3628 35.3051C56.8374 34.8829 57.4506 34.6497 58.0859 34.6499H58.3032C59.7367 34.6448 60.903 35.8027 60.9081 37.2361C60.9108 37.9701 60.6026 38.6709 60.0599 39.1649Z" fill="#02133C"/>
<path d="M62.9999 33.6001V29.4001C62.9999 28.8202 62.5297 28.3501 61.9499 28.3501H48.8249V7.35011C48.8249 6.77025 48.3548 6.30011 47.7749 6.30011H36.6334C38.0509 4.9212 38.8504 3.02766 38.8499 1.05012C38.8499 0.470259 38.3798 0.00012207 37.7999 0.00012207C35.216 0.00419081 32.824 1.36486 31.4999 3.58376C30.1759 1.36486 27.7839 0.00419081 25.1999 0.00012207C24.6201 0.00012207 24.1499 0.470259 24.1499 1.05012C24.1494 3.02766 24.949 4.9212 26.3665 6.30011H15.225C14.6451 6.30011 14.175 6.77025 14.175 7.35011V28.3501H1.05C0.470136 28.3501 0 28.8202 0 29.4001V33.6001C0 34.1799 0.470136 34.6501 1.05 34.6501C62.1809 34.6038 62.1809 34.6038 62.1809 34.6038C62.6551 34.5021 62.9954 34.085 62.9999 33.6001ZM36.6155 2.23452C36.1592 4.18581 34.6356 5.70935 32.6843 6.16571C33.1407 4.21442 34.6642 2.69087 36.6155 2.23452ZM30.3155 6.16571C28.3642 5.70935 26.8407 4.18581 26.3843 2.23452C28.3356 2.69087 29.8592 4.21442 30.3155 6.16571ZM16.275 8.4001H46.7249V28.3501C21.937 28.3501 34.4298 28.3501 16.275 28.3501V8.4001Z" fill="#C40B0B"/>
<path d="M54.0751 4.2002H51.9751V6.30019H54.0751V4.2002Z" fill="#C40B0B"/>
<path d="M56.1747 2.10022H54.0747V4.20021H56.1747V2.10022Z" fill="#C40B0B"/>
<path d="M58.2748 4.2002H56.1748V6.30019H58.2748V4.2002Z" fill="#C40B0B"/>
<path d="M56.1747 6.30029H54.0747V8.4003H56.1747V6.30029Z" fill="#C40B0B"/>
<path d="M63.0001 1.05017H60.9001V3.15017H63.0001V1.05017Z" fill="#C40B0B"/>
<path d="M54.6 12.6003H52.5V14.7003H54.6V12.6003Z" fill="#C40B0B"/>
<path d="M8.92519 11.5502H6.8252V13.6502H8.92519V11.5502Z" fill="#C40B0B"/>
<path d="M8.92519 15.7502H6.8252V17.8502H8.92519V15.7502Z" fill="#C40B0B"/>
<path d="M11.0253 13.6501H8.92529V15.7501H11.0253V13.6501Z" fill="#C40B0B"/>
<path d="M6.8246 13.6501H4.72461V15.7501H6.8246V13.6501Z" fill="#C40B0B"/>
<path d="M2.1 6.30029H0V8.4003H2.1V6.30029Z" fill="#C40B0B"/>
<path d="M11.5499 1.05017H9.44995V3.15017H11.5499V1.05017Z" fill="#C40B0B"/>
<path d="M31.4998 28.875L21.2522 16.1538H41.7474L31.4998 28.875Z" fill="#C40B0B"/>
<path d="M41.7474 16.1538H21.2522L24.7859 10.5H38.2137L41.7474 16.1538Z" fill="#E30B0B"/>
<path d="M36.147 16.1538L38.2128 10.5H24.7849L26.8507 16.1538H36.147Z" fill="#C40B0B"/>
<path d="M36.0937 16.1538L31.5 10.5L26.9062 16.1538H36.0937Z" fill="#FE6F6F"/>
<path d="M26.8508 16.1538L31.499 28.875L36.1472 16.1538H26.8508Z" fill="#CB465F"/>
</g>
<defs>
<clipPath id="clip0_797_999">
<rect width="63" height="63" fill="white"/>
</clipPath>
</defs>
</svg>
